# xmcd
#
# Track frame offsets: 
#        150
#        20632
#        47108
#        76640
#        96977
#        121302
#        143096
#        164972
#        170093
#        189711
#        216796
#        246045
#
# Disc length: 3617 seconds
#
# Revision: 1
# Processed by: cddbd v1.5.2PL0 Copyright (c) Steve Scherf et al.
# Submitted via: ExactAudioCopy v1.0b1
#
DISCID=ab0e1f0c
DTITLE=Duduca da Fonseca Quintet - Samba Jazz in Black and White
DYEAR=2006
DGENRE=Jazz
TTITLE0=Mestre Bimba
TTITLE1=Janeiro
TTITLE2=Bye bye Brasil
TTITLE3=Chorinho para ele
TTITLE4=Viver de Amor
TTITLE5=Medo de Amar
TTITLE6=Palhaco
TTITLE7=Terra de Angara (Intro)
TTITLE8=Terra de Angara
TTITLE9=O grande Amor
TTITLE10=Sambetinho
TTITLE11=Dry Land
EXTD=YEAR: 2006
EXTT0=
EXTT1=
EXTT2=
EXTT3=
EXTT4=
EXTT5=
EXTT6=
EXTT7=
EXTT8=
EXTT9=
EXTT10=
EXTT11=
PLAYORDER=
